HIERARCHY
ROOT Hips
{
 OFFSET 0.000000 0.000000 0.000000
 CHANNELS 6 Xposition Yposition Zposition Yrotation Xrotation Zrotation
 JOINT Chest
 {
  OFFSET 0.000000 9.857222 0.000240
  CHANNELS 3 Yrotation Xrotation Zrotation
  JOINT Chest2
  {
   OFFSET 0.000000 10.876940 -0.000436
   CHANNELS 3 Yrotation Xrotation Zrotation
   JOINT Chest3
   {
    OFFSET 0.000000 9.827798 0.000000
    CHANNELS 3 Yrotation Xrotation Zrotation
    JOINT Chest4
    {
     OFFSET 0.000000 9.827798 0.000000
     CHANNELS 3 Yrotation Xrotation Zrotation
     JOINT Neck
     {
      OFFSET 0.000000 13.831992 0.000000
      CHANNELS 3 Yrotation Xrotation Zrotation
      JOINT Head
      {
       OFFSET 0.000000 9.147643 -0.001036
       CHANNELS 3 Yrotation Xrotation Zrotation
       End Site
       {
        OFFSET 0.000000 17.515799 -0.000541
       }
      }
     }
     JOINT RightCollar
     {
      OFFSET -3.001579 7.717577 0.000000
      CHANNELS 3 Yrotation Xrotation Zrotation
      JOINT RightShoulder
      {
       OFFSET -14.002642 0.000000 0.000000
       CHANNELS 3 Yrotation Xrotation Zrotation
       JOINT RightElbow
       {
        OFFSET -30.053852 0.000000 0.000000
        CHANNELS 3 Yrotation Xrotation Zrotation
        JOINT RightWrist
        {
         OFFSET -24.564923 0.000000 -0.000000
         CHANNELS 3 Yrotation Xrotation Zrotation
         End Site
         {
          OFFSET -18.334355 0.000000 0.000000
         }
        }
       }
      }
     }
     JOINT LeftCollar
     {
      OFFSET 3.001579 7.717577 0.000000
      CHANNELS 3 Yrotation Xrotation Zrotation
      JOINT LeftShoulder
      {
       OFFSET 14.002642 0.000000 0.000000
       CHANNELS 3 Yrotation Xrotation Zrotation
       JOINT LeftElbow
       {
        OFFSET 30.053852 0.000000 0.000000
        CHANNELS 3 Yrotation Xrotation Zrotation
        JOINT LeftWrist
        {
         OFFSET 24.564923 0.000000 -0.000000
         CHANNELS 3 Yrotation Xrotation Zrotation
         End Site
         {
          OFFSET 18.334355 0.000000 0.000000
         }
        }
       }
      }
     }
    }
   }
  }
 }
 JOINT RightHip
 {
  OFFSET -8.003235 -0.001175 -0.000120
  CHANNELS 3 Yrotation Xrotation Zrotation
  JOINT RightKnee
  {
   OFFSET 0.000000 -41.759727 0.000113
   CHANNELS 3 Yrotation Xrotation Zrotation
   JOINT RightAnkle
   {
    OFFSET 0.000000 -40.728748 0.000159
    CHANNELS 3 Yrotation Xrotation Zrotation
    JOINT RightToe
    {
     OFFSET 0.000000 -6.515296 14.732841
     CHANNELS 3 Yrotation Xrotation Zrotation
     End Site
     {
      OFFSET 0.000000 -1.502839 6.412115
     }
    }
   }
  }
 }
 JOINT LeftHip
 {
  OFFSET 8.003235 -0.001175 -0.000120
  CHANNELS 3 Yrotation Xrotation Zrotation
  JOINT LeftKnee
  {
   OFFSET 0.000000 -41.759727 0.000113
   CHANNELS 3 Yrotation Xrotation Zrotation
   JOINT LeftAnkle
   {
    OFFSET 0.000000 -40.728748 0.000159
    CHANNELS 3 Yrotation Xrotation Zrotation
    JOINT LeftToe
    {
     OFFSET 0.000000 -6.515296 14.732841
     CHANNELS 3 Yrotation Xrotation Zrotation
     End Site
     {
      OFFSET 0.000000 -1.502839 6.412115
     }
    }
   }
  }
 }
}
MOTION
Frames: 9
Frame Time: 0.016667
21.762140 67.687207 -10.660661 -35.971759 46.484526 -6.120591 4.009220 -3.788453 -0.463582 0.438874 -0.579524 -0.048872 0.438874 -0.579524 -0.048872 0.329106 -0.434679 -0.036237 -3.869914 5.336333 4.434933 -10.316067 -25.679154 11.148357 12.311297 6.516134 -5.260896 59.352823 21.648117 -36.255917 5.309088 -8.867920 -14.290653 1.547928 4.417025 -11.077197 -11.470371 11.329563 9.395107 -54.075595 -1.267876 34.059744 -15.811294 -7.290672 21.692770 -2.859999 4.365347 14.778538 -134.925779 -67.032531 137.275233 -37.743852 65.059302 -48.961591 -4.508594 -11.209486 0.004069 5.840864 -1.505184 2.982863 -155.617765 -58.473679 -175.724322 -149.523834 84.237887 -162.630678 -7.771139 -15.562589 1.708330 -0.404240 0.146955 -0.254896
22.124421 67.068419 -11.102789 -37.009284 47.821599 -6.064822 4.558548 -4.553685 -1.428037 0.451569 -0.704836 -0.060013 0.451569 -0.704836 -0.060013 0.338603 -0.528672 -0.044488 -3.687751 5.137749 4.338260 -9.932131 -26.084775 10.890038 12.475797 6.622034 -5.565236 59.179423 21.531635 -36.684714 5.286333 -9.191176 -14.321181 1.386327 4.375275 -10.876543 -11.416546 11.252473 9.710091 -53.981901 -1.273513 34.185693 -15.946590 -8.182246 22.090575 -2.812837 4.429133 14.822320 -141.059483 -65.841502 144.289700 -39.800726 65.556183 -50.786043 -4.201438 -10.261780 -0.111908 5.586833 -2.024777 2.859561 -156.877887 -56.283184 -173.548167 -155.050846 83.442892 -168.125790 -7.898211 -15.203861 1.653287 -0.305366 0.114669 -0.253761
22.487429 66.376912 -11.538254 -37.658212 49.060603 -5.989250 4.803469 -5.091397 -2.116382 0.473708 -0.871844 -0.075245 0.473708 -0.871844 -0.075245 0.355167 -0.653942 -0.055757 -3.530405 4.979582 4.214775 -9.574102 -26.415032 10.581591 12.749268 6.829665 -5.809700 58.726222 21.591594 -37.202198 5.229216 -9.864800 -14.368866 1.023933 4.310945 -10.618626 -11.484540 11.131547 9.983015 -53.865296 -1.168418 34.258732 -16.075749 -9.339665 22.559571 -2.783841 4.460965 14.827281 -145.904934 -64.191747 149.613755 -41.687245 66.378330 -52.534771 -3.965225 -9.615388 -0.258365 5.294147 -2.405415 2.724611 -157.995945 -54.029527 -171.773246 -156.323589 82.530947 -169.371448 -7.625315 -14.797100 1.680974 -0.248278 0.114511 -0.226594
22.839695 65.647803 -12.010672 -38.341965 50.163350 -6.186949 5.059518 -5.534495 -2.567218 0.532074 -1.011971 -0.107947 0.532074 -1.011971 -0.107947 0.398867 -0.759073 -0.080077 -3.429700 4.824067 4.094631 -9.330489 -26.731411 10.309124 13.033944 6.984924 -5.949859 58.447448 21.552167 -37.413464 4.988722 -10.358508 -14.548319 0.421334 4.170392 -10.392292 -11.775814 10.861209 10.223647 -53.636588 -1.027194 34.246325 -16.372970 -10.773608 23.035333 -2.732140 4.185142 14.777471 -148.892178 -62.252999 153.234768 -43.651452 66.985334 -54.610518 -4.013665 -9.033094 -0.544752 5.357495 -2.740791 2.739054 -158.491357 -51.773089 -170.501426 -155.404224 81.607069 -168.588723 -7.249019 -14.309791 1.838815 -0.215390 0.152059 -0.208765
23.141655 64.667982 -12.295859 -40.169832 49.634156 -6.729551 6.225167 -4.223283 -3.393876 0.603029 -1.188397 -0.156412 0.603029 -1.188397 -0.156412 0.451951 -0.891453 -0.116132 -3.356440 4.670813 4.004772 -9.157895 -27.035555 10.111901 13.333186 6.863689 -6.039443 58.208634 21.645982 -37.449870 4.696911 -10.988414 -14.621739 -0.300152 3.864526 -10.184901 -11.953282 10.512892 10.517248 -53.499985 -0.827580 34.117453 -16.864815 -12.635449 23.577376 -2.595381 3.877390 14.589984 -149.300650 -61.719669 155.189095 -45.452707 67.535470 -56.809610 -4.257014 -9.226848 -0.950291 5.675976 -2.362852 2.919655 -157.980316 -51.171743 -169.134585 -154.236456 79.968340 -167.623813 -6.712230 -15.111475 2.153181 -0.293675 0.824605 -0.196282
23.482653 63.829737 -12.709455 -40.942440 50.240510 -6.826305 6.591694 -3.893705 -3.982597 0.635887 -1.362447 -0.227856 0.635887 -1.362447 -0.227856 0.476385 -1.022074 -0.169466 -3.290348 4.513568 3.955717 -9.022743 -27.340677 10.001637 13.597272 6.461709 -6.101296 58.222667 21.678916 -37.439286 4.359631 -11.594633 -14.390184 -0.974597 3.447878 -9.870438 -11.972089 10.065239 10.885276 -53.443542 -0.520855 33.926409 -17.201294 -14.351509 23.957906 -2.358458 3.678838 14.367848 -150.573821 -60.029507 157.247817 -47.354203 67.964089 -59.212125 -4.077201 -9.112502 -1.215486 5.669846 -2.246319 2.915597 -158.200672 -49.569825 -167.752358 -152.836468 78.907667 -166.630555 -6.424279 -15.091128 2.536560 -0.286745 1.183204 -0.148453
23.768613 62.970752 -13.068144 -41.416713 50.331802 -6.720174 6.903660 -3.337376 -4.554096 0.675312 -1.431546 -0.339763 0.675312 -1.431546 -0.339763 0.505662 -1.074037 -0.253227 -3.286754 4.386992 3.939427 -9.028014 -27.576939 9.988116 13.608832 6.061529 -6.050361 58.761324 21.440359 -37.386696 3.827803 -11.824886 -13.871059 -1.427251 3.185332 -9.546494 -12.031191 9.723596 11.370614 -53.339076 -0.012533 33.852686 -17.119732 -15.451990 24.166751 -2.088310 3.252256 14.031331 -151.637767 -58.775922 158.799890 -49.677615 68.595754 -61.843439 -3.929152 -9.024673 -1.483363 5.628668 -2.213626 2.878041 -158.149456 -48.504522 -166.785254 -151.425932 77.828588 -165.679826 -6.093919 -15.087179 2.827251 -0.227709 1.516565 -0.042938
24.022012 62.096316 -13.350240 -41.715948 50.199390 -6.455423 7.255912 -2.765632 -5.164222 0.714828 -1.413777 -0.475928 0.714828 -1.413777 -0.475928 0.534993 -1.060892 -0.355275 -3.339653 4.271121 3.930768 -9.151320 -27.785197 10.020800 13.417574 5.959724 -5.961177 59.360828 20.988026 -37.546098 3.162359 -11.818081 -13.172327 -1.727164 3.019113 -9.371604 -12.235311 9.398170 11.956262 -53.261842 0.352743 33.791851 -16.832368 -15.906009 24.132791 -1.901712 2.886424 13.678235 -152.969504 -57.725284 160.305049 -52.304268 69.751509 -64.490225 -4.143060 -9.031785 -1.764597 5.582638 -2.242768 2.812300 -158.045492 -47.706724 -165.932290 -149.868979 76.749851 -164.612349 -5.783035 -15.011717 3.130890 -0.140302 1.771842 0.050371
24.244618 61.230371 -13.616630 -41.651001 50.187925 -6.042112 7.367614 -2.363344 -5.618354 0.746742 -1.347985 -0.613161 0.746742 -1.347985 -0.613161 0.558679 -1.011741 -0.458203 -3.387325 4.158832 3.905115 -9.253878 -27.989643 10.015438 13.281557 6.118968 -5.900445 59.703261 20.480238 -37.885484 2.511256 -11.778422 -12.524682 -1.956187 2.880232 -9.221594 -12.531794 9.006795 12.513228 -53.158952 0.569670 33.718934 -16.555508 -16.122054 23.965455 -1.796981 2.604662 13.290232 -154.379538 -56.534094 161.646937 -55.199116 70.883538 -67.417349 -4.161467 -9.001538 -2.002199 5.497325 -2.294906 2.716654 -158.056615 -46.795678 -165.254312 -148.215627 75.696417 -163.468745 -5.310034 -14.843599 3.420941 -0.100387 1.945749 0.115357
